<svg width="78.620361" height="27.570007" viewBox="0 0 78.6204 27.57" fill="none" xmlns="http://www.w3.org/2000/svg" xmlns:xlink="http://www.w3.org/1999/xlink">
	<desc>
			Created with Pixso.
	</desc>
	<defs/>
	<path id="Vector" d="M65 27.57C72.51 27.57 78.62 21.38 78.62 13.78C78.62 6.17 72.51 0 65 0C57.49 0 51.38 6.17 51.38 13.78C51.38 21.38 57.49 27.57 65 27.57ZM65 8.86C67.67 8.86 69.85 11.07 69.85 13.78C69.85 16.49 67.67 18.69 64.99 18.69C62.32 18.69 60.14 16.49 60.14 13.78C60.14 11.07 62.32 8.86 64.99 8.86L65 8.86ZM13.61 27.57C21.12 27.57 27.23 21.38 27.23 13.78C27.23 6.17 21.12 0 13.61 0C6.11 0 0 6.17 0 13.78C0 21.38 6.11 27.57 13.61 27.57ZM13.61 8.86C16.29 8.86 18.47 11.07 18.47 13.78C18.47 16.49 16.29 18.69 13.61 18.69C10.94 18.69 8.76 16.49 8.76 13.78C8.76 11.07 10.94 8.86 13.61 8.86L13.61 8.86ZM39.3 8.55L35.12 0.17L25.33 0.17L34.47 18.51L34.47 27.13L44.13 27.13L44.13 18.51L53.27 0.17L43.48 0.17L39.3 8.55L39.3 8.55Z" fill="#EE2E24" fill-opacity="1.000000" fill-rule="nonzero"/>
</svg>
